<svg xmlns="http://www.w3.org/2000/svg" width="77" height="77" viewBox="0 0 77 77">
  <path fill="#5DE8F9" fill-rule="evenodd" d="M38.5,77 C17.2370371,77 0,59.7629629 0,38.5 C0,17.2370371 17.2370371,0 38.5,0 C59.7629629,0 77,17.2370371 77,38.5 C77,59.7629629 59.7629629,77 38.5,77 Z M32.3333333,35.4615385 L27.3333333,35.4615385 L27.3333333,30.3846154 L24,30.3846154 L24,35.4615385 L19,35.4615385 L19,38.8461538 L24,38.8461538 L24,43.9230769 L27.3333333,43.9230769 L27.3333333,38.8461538 L32.3333333,38.8461538 L32.3333333,35.4615385 Z M49,37.1538462 C51.7666667,37.1538462 53.9833333,34.8861538 53.9833333,32.0769231 C53.9833333,29.2676923 51.7666667,27 49,27 C48.4666667,27 47.95,27.0846154 47.4833333,27.2369231 C48.4333333,28.6076923 48.9833333,30.2661538 48.9833333,32.0769231 C48.9833333,33.8876923 48.4166667,35.5292308 47.4833333,36.9169231 C47.95,37.0692308 48.4666667,37.1538462 49,37.1538462 Z M40.6666667,37.1538462 C43.4333333,37.1538462 45.65,34.8861538 45.65,32.0769231 C45.65,29.2676923 43.4333333,27 40.6666667,27 C37.9,27 35.6666667,29.2676923 35.6666667,32.0769231 C35.6666667,34.8861538 37.9,37.1538462 40.6666667,37.1538462 Z M51.7,40.8092308 C53.0833333,42.0446154 54,43.6184615 54,45.6153846 L54,49 L59,49 L59,45.6153846 C59,43.0092308 55.05,41.4015385 51.7,40.8092308 Z M40.6666667,40.5384615 C37.3333333,40.5384615 30.6666667,42.2307692 30.6666667,45.6153846 L30.6666667,49 L50.6666667,49 L50.6666667,45.6153846 C50.6666667,42.2307692 44,40.5384615 40.6666667,40.5384615 Z"/>
</svg>
