<svg xmlns="http://www.w3.org/2000/svg" width="77" height="77" viewBox="0 0 77 77">
  <path fill="#5DE8F9" fill-rule="evenodd" d="M38.5,77 C17.2370371,77 0,59.7629629 0,38.5 C0,17.2370371 17.2370371,0 38.5,0 C59.7629629,0 77,17.2370371 77,38.5 C77,59.7629629 59.7629629,77 38.5,77 Z M55,27 L47,27 L47,23 C47,20.78 45.22,19 43,19 L35,19 C32.78,19 31,20.78 31,23 L31,27 L23,27 C20.78,27 19.02,28.78 19.02,31 L19,53 C19,55.22 20.78,57 23,57 L55,57 C57.22,57 59,55.22 59,53 L59,31 C59,28.78 57.22,27 55,27 Z M43,27 L35,27 L35,23 L43,23 L43,27 Z"/>
</svg>
