<svg xmlns="http://www.w3.org/2000/svg" width="77" height="77" viewBox="0 0 77 77">
  <path fill="#5DE8F9" fill-rule="evenodd" d="M38.5,77 C17.2370371,77 0,59.7629629 0,38.5 C0,17.2370371 17.2370371,0 38.5,0 C59.7629629,0 77,17.2370371 77,38.5 C77,59.7629629 59.7629629,77 38.5,77 Z M55,31 L55,27 L23,27 L23,31 L55,31 Z M51,19 L27,19 L27,23 L51,23 L51,19 Z M59,39 C59,36.8 57.2,35 55,35 L23,35 C20.8,35 19,36.8 19,39 L19,55 C19,57.2 20.8,59 23,59 L55,59 C57.2,59 59,57.2 59,55 L59,39 Z M47,47 L35,53.52 L35,40.46 L47,47 Z"/>
</svg>
