<svg xmlns="http://www.w3.org/2000/svg" width="313" height="313" viewBox="0 0 313 313">
  <path fill="#AF005D" fill-rule="evenodd" d="M156.5,0 C70.112,0 0,70.112 0,156.5 C0,242.888 70.112,313 156.5,313 C242.888,313 313,242.888 313,156.5 C313,70.112 242.888,0 156.5,0 L156.5,0 Z M156.5,281.7 C87.327,281.7 31.3,225.673 31.3,156.5 C31.3,127.5475 41.1595,100.9425 57.7485,79.815 L233.185,255.2515 C212.0575,271.8405 185.4525,281.7 156.5,281.7 L156.5,281.7 Z M255.2515,233.185 L79.815,57.7485 C100.9425,41.1595 127.5475,31.3 156.5,31.3 C225.673,31.3 281.7,87.327 281.7,156.5 C281.7,185.4525 271.8405,212.0575 255.2515,233.185 L255.2515,233.185 Z" opacity=".981"/>
</svg>
