<?xml version="1.0" encoding="UTF-8"?>
<svg width="50px" height="50px" viewBox="0 0 50 50" version="1.1" xmlns="http://www.w3.org/2000/svg" xmlns:xlink="http://www.w3.org/1999/xlink">
    <!-- Generator: Sketch 52.4 (67378) - http://www.bohemiancoding.com/sketch -->
    <title>iPad-selected</title>
    <desc>Created with Sketch.</desc>
    <g id="Page-1" stroke="none" stroke-width="1" fill="none" fill-rule="evenodd">
        <g id="iPad-selected" fill="#5DE8F9">
            <path d="M25,50 C11.1928813,50 0,38.8071187 0,25 C0,11.1928813 11.1928813,0 25,0 C38.8071187,0 50,11.1928813 50,25 C50,38.8071187 38.8071187,50 25,50 Z M17.0263158,10 C15.3557895,10 14,11.2833333 14,12.8645833 L14,37.1354167 C14,38.7166667 15.3557895,40 17.0263158,40 L33.9736842,40 C35.6442105,40 37,38.7166667 37,37.1354167 L37,12.8645833 C37,11.2833333 35.6442105,10 33.9736842,10 L17.0263158,10 Z M25.84,39.6363636 C24.8218667,39.6363636 24,38.8242424 24,37.8181818 C24,36.8121212 24.8218667,36 25.84,36 C26.8581333,36 27.68,36.8121212 27.68,37.8181818 C27.68,38.8242424 26.8581333,39.6363636 25.84,39.6363636 Z M34.48,35.8181818 L16,35.8181818 L16,13 L34.48,13 L34.48,35.8181818 Z" id="Combined-Shape"></path>
        </g>
    </g>
</svg>