<svg xmlns="http://www.w3.org/2000/svg" width="50" height="50" viewBox="0 0 50 50">
  <path fill="#5DE8F9" fill-rule="evenodd" d="M17.0263158,10 C15.3557895,10 14,11.2833333 14,12.8645833 L14,37.1354167 C14,38.7166667 15.3557895,40 17.0263158,40 L33.9736842,40 C35.6442105,40 37,38.7166667 37,37.1354167 L37,12.8645833 C37,11.2833333 35.6442105,10 33.9736842,10 L17.0263158,10 Z M25.96,39.0909091 C24.9418667,39.0909091 24.12,38.2787879 24.12,37.2727273 C24.12,36.2666667 24.9418667,35.4545455 25.96,35.4545455 C26.9781333,35.4545455 27.8,36.2666667 27.8,37.2727273 C27.8,38.2787879 26.9781333,39.0909091 25.96,39.0909091 L25.96,39.0909091 Z M34.24,34.5454545 L16.76,34.5454545 L16.76,12.7272727 L34.24,12.7272727 L34.24,34.5454545 L34.24,34.5454545 Z"/>
</svg>
