<?xml version="1.0" encoding="UTF-8"?>
<svg width="50px" height="50px" viewBox="0 0 50 50" version="1.1" xmlns="http://www.w3.org/2000/svg" xmlns:xlink="http://www.w3.org/1999/xlink">
    <!-- Generator: Sketch 52.4 (67378) - http://www.bohemiancoding.com/sketch -->
    <title>phone-selected</title>
    <desc>Created with Sketch.</desc>
    <g id="Page-1" stroke="none" stroke-width="1" fill="none" fill-rule="evenodd">
        <g id="phone-selected" fill="#5DE8F9">
            <path d="M25,50 C11.1928813,50 0,38.8071187 0,25 C0,11.1928813 11.1928813,0 25,0 C38.8071187,0 50,11.1928813 50,25 C50,38.8071187 38.8071187,50 25,50 Z M29.9230769,12 L20.0769231,12 C18.3784615,12 17,13.3236364 17,14.9545455 L17,35.0454545 C17,36.6763636 18.3784615,38 20.0769231,38 L29.9230769,38 C31.6215385,38 33,36.6763636 33,35.0454545 L33,14.9545455 C33,13.3236364 31.6215385,12 29.9230769,12 Z M25,36.8181818 C23.9784615,36.8181818 23.1538462,36.0263636 23.1538462,35.0454545 C23.1538462,34.0645455 23.9784615,33.2727273 25,33.2727273 C26.0215385,33.2727273 26.8461538,34.0645455 26.8461538,35.0454545 C26.8461538,36.0263636 26.0215385,36.8181818 25,36.8181818 Z M30.5384615,32.0909091 L19.4615385,32.0909091 L19.4615385,15.5454545 L30.5384615,15.5454545 L30.5384615,32.0909091 Z" id="Combined-Shape"></path>
        </g>
    </g>
</svg>