<svg xmlns="http://www.w3.org/2000/svg" width="77" height="77" viewBox="0 0 77 77">
  <path fill="#5DE8F9" fill-rule="evenodd" d="M38.5,77 C17.2370371,77 0,59.7629629 0,38.5 C0,17.2370371 17.2370371,0 38.5,0 C59.7629629,0 77,17.2370371 77,38.5 C77,59.7629629 59.7629629,77 38.5,77 Z M29.4,34.375 L24.2,34.375 C21.3281193,34.375 19,36.8933983 19,40 C19,43.1066017 21.3281193,45.625 24.2,45.625 L24.2,55 L31.1333333,55 L31.1333333,45.625 L36.3333333,45.625 L45,55 L45,25 L36.3333333,34.375 L29.4,34.375 Z M52.1425071,26.1521709 L48.1425071,32.8188376 C47.8583589,33.2924178 48.011924,33.9066781 48.4855042,34.1908263 C48.9590845,34.4749744 49.5733448,34.3214094 49.8574929,33.8478291 L53.8574929,27.1811624 C54.1416411,26.7075822 53.988076,26.0933219 53.5144958,25.8091737 C53.0409155,25.5250256 52.4266552,25.6785906 52.1425071,26.1521709 Z M52.1425071,53.8478291 C52.4266552,54.3214094 53.0409155,54.4749744 53.5144958,54.1908263 C53.988076,53.9066781 54.1416411,53.2924178 53.8574929,52.8188376 L49.8574929,46.1521709 C49.5733448,45.6785906 48.9590845,45.5250256 48.4855042,45.8091737 C48.011924,46.0933219 47.8583589,46.7075822 48.1425071,47.1811624 L52.1425071,53.8478291 Z M50.5183262,42.9889364 L57.1849929,43.9889364 C57.7311673,44.0708625 58.2403435,43.6945149 58.3222697,43.1483405 C58.4041959,42.602166 58.0278483,42.0929898 57.4816738,42.0110636 L50.8150071,41.0110636 C50.2688327,40.9291375 49.7596565,41.3054851 49.6777303,41.8516595 C49.5958041,42.397834 49.9721517,42.9070102 50.5183262,42.9889364 Z M50.5183262,36.0110636 C49.9721517,36.0929898 49.5958041,36.602166 49.6777303,37.1483405 C49.7596565,37.6945149 50.2688327,38.0708625 50.8150071,37.9889364 L57.4816738,36.9889364 C58.0278483,36.9070102 58.4041959,36.397834 58.3222697,35.8516595 C58.2403435,35.3054851 57.7311673,34.9291375 57.1849929,35.0110636 L50.5183262,36.0110636 Z"/>
</svg>
