<?xml version="1.0" encoding="UTF-8"?>
<svg width="50px" height="50px" viewBox="0 0 50 50" version="1.1" xmlns="http://www.w3.org/2000/svg" xmlns:xlink="http://www.w3.org/1999/xlink">
    <!-- Generator: Sketch 52.4 (67378) - http://www.bohemiancoding.com/sketch -->
    <title>TV-selected</title>
    <desc>Created with Sketch.</desc>
    <g id="Page-1" stroke="none" stroke-width="1" fill="none" fill-rule="evenodd">
        <g id="TV-selected" fill="#5DE8F9">
            <path d="M25,50 C11.1928813,50 0,38.8071187 0,25 C0,11.1928813 11.1928813,0 25,0 C38.8071187,0 50,11.1928813 50,25 C50,38.8071187 38.8071187,50 25,50 Z M38.1818182,13 L12.8181818,13 C11.2681818,13 10,14.25 10,15.7777778 L10,32.4444444 C10,33.9722222 11.2681818,35.2222222 12.8181818,35.2222222 L19.8636364,35.2222222 L19.8636364,38 L31.1363636,38 L31.1363636,35.2222222 L38.1818182,35.2222222 C39.7318182,35.2222222 40.9859091,33.9722222 40.9859091,32.4444444 L41,15.7777778 C41,14.25 39.7318182,13 38.1818182,13 Z M38,32 L13,32 L13,16 L38,16 L38,32 Z" id="Combined-Shape"></path>
        </g>
    </g>
</svg>