<svg xmlns="http://www.w3.org/2000/svg" width="142" height="118" viewBox="0 0 142 118">
  <g fill="#FFF" fill-rule="evenodd">
    <polygon points="41.25 13.258 41.25 .668 0 .668 0 13.258 13.922 13.258 13.922 53.172 27.328 53.172 27.328 13.258"/>
    <path d="M90.719,44.433985 C95.609,50.729985 102.273,53.913985 108.566,53.913985 C118.195,53.913985 128.859,48.358985 129.305,38.214985 C129.898,25.327985 120.566,22.069985 111.234,20.366985 C107.16,19.476985 104.422,17.995985 104.273,15.476985 C104.496,9.405985 113.898,9.183985 119.379,15.034985 L128.047,8.366985 C122.641,1.776985 116.492,-1.5e-05 110.125,-1.5e-05 C100.496,-1.5e-05 91.164,5.405985 91.164,15.698985 C91.164,25.698985 98.867,31.030985 107.309,32.362985 C111.605,32.956985 116.418,34.659985 116.27,37.620985 C115.898,43.249985 104.348,42.952985 99.09,36.585985 L90.719,44.433985 Z"/>
    <polygon points="30.695 76.5 53.801 76.5 53.801 63.91 17.289 63.91 17.289 116.344 30.695 116.344 30.695 98.273 50.91 98.273 50.91 85.906 30.695 85.906"/>
    <path d="M98.16,81.167985 C98.16,69.093985 108.973,63.171985 119.859,63.171985 C130.746,63.171985 141.633,69.167985 141.633,81.167985 L141.633,87.659985 L128.375,87.659985 L128.375,81.167985 C128.375,77.093985 124.008,75.241985 119.711,75.241985 C115.562,75.241985 111.418,77.315985 111.418,81.167985 L111.418,87.659985 L98.16,87.659985 L98.16,81.167985 Z M141.633,91.979985 L141.633,99.089985 C141.633,111.085985 130.82,117.085985 119.934,117.085985 C109.047,117.085985 98.16,111.085985 98.16,99.089985 L98.16,91.979985 L111.418,91.979985 L111.418,99.089985 C111.418,102.940985 115.711,104.792985 119.934,104.792985 C124.156,104.792985 128.375,102.866985 128.375,99.089985 L128.375,91.979985 L141.633,91.979985 Z"/>
    <polygon points="59.914 53.172 59.914 32.512 41.621 .742 57.023 .742 66.504 19.996 75.984 .742 91.535 .742 73.168 32.512 73.168 53.172 73.211 53.172 73.32 69.414 73.277 69.414 73.277 103.234 94.605 103.234 94.605 116.344 59.945 116.344 59.945 63.91 73.277 63.91 73.277 69.414 59.945 69.414 59.945 53.172"/>
  </g>
</svg>
